{"asset":{"generator":"Khronos glTF Spline I/O v0.0.1","version":"2.0"},"scenes":[{"nodes":[0]}],"nodes":[{"name":"","children":[1,2,3]},{"name":"Torus","matrix":[2.220446049250313e-16,-1,0,0,1,2.220446049250313e-16,0,0,0,0,1,0,0,0,0,1],"mesh":0},{"name":"Directional Light","translation":[200,300,300],"rotation":[-0.4062840720729887,0.12301291902225084,-0.2623788760260691,0.8665785595944042],"extensions":{"KHR_lights_punctual":{"light":0}}},{"name":"Personal Camera","camera":0,"translation":[1433.5080606273586,831.3534225592017,376.64412281064074],"rotation":[-0.18811606804449638,0.5155680395584682,0.11717742875050913,0.8276903960544278]}],"cameras":[{"type":"perspective","perspective":{"aspectRatio":1.7777777777777777,"yfov":0.7853981633974483,"znear":5,"zfar":500000}}],"meshes":[{"primitives":[{"attributes":{"POSITION":1,"NORMAL":2,"TEXCOORD_0":3},"indices":0}]}],"buffers":[{"uri":"data:application/octet-stream;base64,","byteLength":95328}],"bufferViews":[{"buffer":0,"byteOffset":0,"byteLength":24576,"target":34963},{"buffer":0,"byteOffset":24576,"byteLength":26532,"target":34962},{"buffer":0,"byteOffset":51108,"byteLength":26532,"target":34962},{"buffer":0,"byteOffset":77640,"byteLength":17688,"target":34962}],"accessors":[{"bufferView":0,"byteOffset":0,"componentType":5123,"count":12288,"type":"SCALAR","min":[33],"max":[2144]},{"bufferView":1,"byteOffset":0,"componentType":5126,"count":2211,"type":"VEC3","min":[-50,-50,-12.500499725341797],"max":[50,50,12.500499725341797]},{"bufferView":2,"byteOffset":0,"componentType":5126,"count":2211,"type":"VEC3","min":[-1,-1,-1],"max":[1,1,1]},{"bufferView":3,"byteOffset":0,"componentType":5126,"count":2211,"type":"VEC2","min":[0,0],"max":[0.9520199298858643,1]}],"extensions":{"KHR_lights_punctual":{"lights":[{"type":"directional","name":"Directional Light","color":[1,1,1],"intensity":0.7}]}},"extensionsUsed":["KHR_lights_punctual"]}