{"asset":{"generator":"Khronos glTF Spline I/O v0.0.1","version":"2.0"},"scenes":[{"nodes":[0]}],"nodes":[{"name":"","children":[1,2,3]},{"name":"Pyramid","matrix":[1,0,0,0,0,1,0,0,0,0,1,0,0,0,0,1],"mesh":0},{"name":"Directional Light","translation":[200,300,300],"rotation":[-0.4062840720729887,0.12301291902225084,-0.2623788760260691,0.8665785595944042],"extensions":{"KHR_lights_punctual":{"light":0}}},{"name":"Personal Camera","camera":0,"translation":[430.4573666036187,888.6130725132098,-375.7348432257139],"rotation":[-0.28403749408284135,0.7130723610544396,0.41365733274796923,0.48963059638795303]}],"cameras":[{"type":"orthographic","orthographic":{"xmag":2560,"ymag":1337,"zfar":500000,"znear":-500000}}],"meshes":[{"primitives":[{"attributes":{"POSITION":1,"NORMAL":2,"TEXCOORD_0":3},"indices":0}]}],"buffers":[{"uri":"data:application/octet-stream;base64,","byteLength":452}],"bufferViews":[{"buffer":0,"byteOffset":0,"byteLength":36,"target":34963},{"buffer":0,"byteOffset":36,"byteLength":156,"target":34962},{"buffer":0,"byteOffset":192,"byteLength":156,"target":34962},{"buffer":0,"byteOffset":348,"byteLength":104,"target":34962}],"accessors":[{"bufferView":0,"byteOffset":0,"componentType":5123,"count":18,"type":"SCALAR","min":[0],"max":[12]},{"bufferView":1,"byteOffset":0,"componentType":5126,"count":13,"type":"VEC3","min":[-43.30126953125,-50,-50],"max":[43.30126953125,50,25]},{"bufferView":2,"byteOffset":0,"componentType":5126,"count":13,"type":"VEC3","min":[-0.8401680588722229,-1,-0.48507124185562134],"max":[0.8401680588722229,0.24253562092781067,0.9701424837112427]},{"bufferView":3,"byteOffset":0,"componentType":5126,"count":13,"type":"VEC2","min":[0,0],"max":[0,0]}],"extensions":{"KHR_lights_punctual":{"lights":[{"type":"directional","name":"Directional Light","color":[1,1,1],"intensity":0.7}]}},"extensionsUsed":["KHR_lights_punctual"]}